# xmcd
#
# Track frame offsets: 
#        150
#        14200
#        25835
#        38552
#        52337
#        65605
#        80140
#        94625
#        107317
#        119635
#        132922
#        146742
#        161150
#        174312
#        189425
#        201587
#        213572
#        228195
#        243880
#        258980
#        274097
#        289115
#
# Disc length: 4027 seconds
#
# Revision: 2
# Processed by: cddbd v1.5PL3 Copyright (c) Steve Scherf et al.
# Submitted via: ExactAudioCopy v0.95a3
#
DISCID=4b0fb916
DTITLE=Sweethearts Of The Rodeo - Sweethearts Of The Rodeo
DYEAR=2000
DGENRE=Country
TTITLE0=Midnight Girl/Sunset Town
TTITLE1=Hey Doll Baby
TTITLE2=Since I Found You
TTITLE3=Gotta Get Away
TTITLE4=Chains Of Gold
TTITLE5=Chosen Few
TTITLE6=Everywhere I Turn
TTITLE7=I Can't Resist
TTITLE8=Satisfy You
TTITLE9=Blue To The Bone
TTITLE10=We Won't Let That River Come Between Us
TTITLE11=So Sad
TTITLE12=Don't Look Down
TTITLE13=One Time, One Night
TTITLE14=You Never Talk Sweet
TTITLE15=I Feel Fine
TTITLE16=If I Never See Midnight Again
TTITLE17=Gone Aagin
TTITLE18=Until I Stop Dancing
TTITLE19=This Heart
TTITLE20=Hard Headed Man
TTITLE21=Devil And Your Deep Blue Eyes
EXTD=
EXTT0=
EXTT1=
EXTT2=
EXTT3=
EXTT4=
EXTT5=
EXTT6=
EXTT7=
EXTT8=
EXTT9=
EXTT10=
EXTT11=
EXTT12=
EXTT13=
EXTT14=
EXTT15=
EXTT16=
EXTT17=
EXTT18=
EXTT19=
EXTT20=
EXTT21=
PLAYORDER=
